<?xml version="1.0" standalone="no"?>
<!DOCTYPE svg PUBLIC "-//W3C//DTD SVG 20010904//EN"
 "http://www.w3.org/TR/2001/REC-SVG-20010904/DTD/svg10.dtd">
<svg version="1.0" xmlns="http://www.w3.org/2000/svg"
 width="621.000000pt" height="621.000000pt" viewBox="0 0 621.000000 621.000000"
 preserveAspectRatio="xMidYMid meet">
<metadata>
Created by potrace 1.11, written by Peter Selinger 2001-2013
</metadata>
<g transform="translate(0.000000,621.000000) scale(0.100000,-0.100000)"
fill="#000000" stroke="none">
<path d="M2948 6205 c-2 -1 -41 -5 -88 -9 -129 -9 -174 -15 -310 -43 -69 -14
-132 -26 -140 -28 -93 -18 -350 -107 -486 -168 -849 -379 -1488 -1143 -1724
-2061 -15 -61 -31 -127 -34 -146 -3 -19 -12 -73 -21 -120 -8 -47 -18 -112 -21
-145 -3 -33 -9 -87 -14 -120 -8 -62 -5 -506 3 -560 3 -16 8 -57 11 -90 47
-439 231 -947 483 -1334 48 -74 187 -266 203 -281 3 -3 34 -39 70 -80 145
-167 359 -360 543 -489 349 -244 770 -420 1159 -486 18 -3 40 -8 48 -10 8 -2
40 -7 70 -10 30 -4 66 -9 80 -12 14 -2 144 -6 290 -7 252 -3 376 6 530 38 14
2 49 9 79 15 30 6 57 14 60 17 6 6 -35 1 -139 -16 -119 -19 -372 -27 -520 -16
-873 65 -1656 548 -2115 1304 -50 84 -175 323 -175 337 0 3 -9 24 -19 48 -58
127 -128 364 -167 562 -2 11 -6 31 -9 45 -3 14 -8 48 -11 75 -3 28 -7 56 -10
63 -8 25 -18 236 -17 367 0 119 8 254 19 330 3 17 7 46 9 65 18 129 70 344
118 485 316 929 1074 1618 2002 1816 33 7 62 13 65 14 3 1 30 5 60 9 30 5 64
10 74 12 103 19 449 25 611 10 50 -4 92 -9 95 -11 3 -2 28 -6 55 -9 28 -4 57
-9 65 -11 8 -2 31 -7 50 -10 141 -24 408 -111 570 -186 378 -175 715 -435 970
-749 87 -107 190 -246 190 -256 0 -3 9 -18 19 -32 82 -115 219 -406 285 -602
49 -150 103 -382 120 -525 4 -27 9 -67 12 -87 13 -96 19 -419 9 -513 -2 -22
-6 -65 -9 -96 -39 -403 -197 -851 -415 -1174 -36 -52 -43 -65 -38 -65 6 0 167
248 167 256 0 3 8 18 19 32 28 40 134 254 181 364 71 168 156 438 176 558 2
14 8 45 14 70 11 55 21 115 26 155 2 17 7 59 11 95 10 82 10 531 1 630 -90
902 -561 1722 -1284 2238 -86 61 -259 172 -269 172 -2 0 -32 16 -66 36 -187
105 -534 233 -759 278 -14 3 -36 7 -50 10 -13 3 -40 8 -60 11 -20 3 -45 7 -55
9 -11 2 -49 7 -85 11 -36 4 -74 9 -85 11 -23 5 -422 14 -427 9z"/>
<path d="M3229 5026 c-2 -2 -42 -7 -89 -11 -398 -32 -849 -219 -1190 -492 -82
-66 -251 -228 -319 -306 -157 -182 -306 -421 -404 -647 -69 -162 -141 -392
-161 -520 -8 -51 -16 -92 -20 -115 -27 -123 -28 -577 -2 -711 3 -12 7 -39 10
-60 14 -87 19 -113 42 -204 107 -431 325 -820 634 -1131 275 -277 621 -486
988 -598 115 -35 242 -63 342 -77 25 -3 53 -8 62 -10 10 -1 59 -6 110 -9 51
-4 108 -8 126 -9 17 -1 32 0 32 4 0 3 -44 11 -97 18 -315 38 -615 149 -886
326 -428 279 -745 724 -871 1224 -53 206 -71 358 -70 587 0 188 10 284 45 440
93 413 284 760 584 1061 330 332 715 527 1180 600 154 24 491 23 585 -1 8 -3
31 -7 50 -10 273 -42 584 -178 845 -369 395 -288 697 -761 809 -1261 41 -186
50 -264 51 -455 0 -269 -31 -465 -112 -710 -69 -210 -205 -471 -324 -621 -30
-38 -40 -61 -16 -37 62 61 225 287 290 400 110 191 236 508 263 663 3 16 10
50 15 75 16 67 22 107 36 220 10 82 10 440 1 540 -29 308 -127 636 -269 910
-299 572 -800 997 -1404 1189 -105 34 -284 75 -374 86 -30 4 -63 9 -75 12 -24
5 -412 14 -417 9z"/>
<path d="M3499 3756 c-2 -2 -32 -6 -66 -10 -303 -31 -638 -178 -893 -391 -308
-258 -527 -631 -606 -1035 -36 -182 -39 -438 -8 -650 20 -141 97 -376 171
-525 263 -525 793 -910 1348 -980 28 -4 61 -8 75 -11 35 -6 274 -6 335 1 59 6
176 35 189 46 14 13 -86 0 -101 -12 -15 -13 -241 -16 -318 -6 -413 59 -752
255 -994 577 -103 137 -218 379 -246 521 -24 116 -36 234 -36 339 0 112 2 146
16 229 62 372 262 706 558 930 106 80 132 96 245 151 134 66 214 92 407 136
17 4 102 8 190 10 176 3 275 -9 415 -51 47 -14 90 -27 95 -29 74 -21 252 -116
350 -185 104 -73 265 -235 337 -337 195 -277 290 -614 256 -904 -14 -119 -19
-144 -48 -255 -58 -227 -174 -446 -328 -622 -34 -40 -59 -73 -53 -73 18 0 204
206 267 296 142 204 269 511 299 724 4 24 8 47 10 51 22 35 23 532 1 567 -2 4
-7 25 -10 47 -12 74 -56 228 -92 319 -240 608 -767 1032 -1389 1120 -87 12
-366 21 -376 12z"/>
<path d="M3820 2593 c-172 -14 -392 -90 -535 -186 -184 -122 -315 -270 -410
-462 -98 -196 -135 -402 -111 -615 7 -67 40 -219 56 -255 4 -11 14 -36 21 -55
24 -68 88 -186 137 -255 282 -400 733 -571 1188 -451 124 32 273 106 384 190
259 195 424 486 465 820 25 205 -18 430 -122 640 -185 375 -551 617 -948 629
-49 1 -106 1 -125 0z m255 -504 c191 -29 356 -113 493 -249 119 -119 196 -253
242 -420 30 -109 33 -318 6 -420 -76 -288 -253 -504 -512 -621 -220 -100 -493
-95 -709 13 -224 113 -385 308 -461 563 -33 112 -42 310 -19 415 46 205 118
336 264 480 191 187 451 277 696 239z"/>
<path d="M5416 1163 c-6 -14 -5 -15 5 -6 7 7 10 15 7 18 -3 3 -9 -2 -12 -12z"/>
</g>
</svg>
