<?xml version="1.0" encoding="utf-8"?>
<!-- Generator: Adobe Illustrator 20.0.0, SVG Export Plug-In . SVG Version: 6.00 Build 0)  -->
<svg version="1.1" id="Layer_1" xmlns="http://www.w3.org/2000/svg" xmlns:xlink="http://www.w3.org/1999/xlink" x="0px" y="0px"
	 viewBox="0 0 116.8 24" style="enable-background:new 0 0 116.8 24;" xml:space="preserve">
<style type="text/css">
	.st0{fill:#FF6600;}
</style>
<g id="Layer_2">
	<path class="st0" d="M36.7,23.4c0,0.4-0.2,0.5-0.7,0.5c-0.2,0-0.3,0-0.5-0.1s-0.3-0.3-0.2-0.4v-4.8c0-1.3-0.5-2-1.6-2
		c-1.2,0-1.8,0.7-1.8,2.2v4.6c0,0.4-0.2,0.5-0.6,0.5c-0.2,0-0.3,0-0.5-0.1s-0.3-0.3-0.3-0.4v-5c0-0.5-0.2-1-0.5-1.3
		s-0.8-0.5-1.3-0.5c-0.8,0-1.3,0.3-1.5,0.9c-0.1,0.3-0.2,1-0.2,2v3.9c0,0.3-0.3,0.5-0.8,0.5c-0.4,0-0.6-0.2-0.6-0.5v-4.2
		c0-2.5,1-3.8,3.2-3.8c0.5,0,1,0.2,1.5,0.5s0.7,0.7,0.9,1.2c0.1-0.5,0.5-0.9,1-1.2s1-0.4,1.5-0.4c0.9,0,1.6,0.3,2.1,0.7
		c0.6,0.5,0.8,1.2,0.8,2L36.7,23.4L36.7,23.4z"/>
	<path class="st0" d="M44.7,22c-0.6,1.3-1.6,1.9-3,1.9c-1.2,0-2.1-0.4-2.8-1.2c-0.6-0.8-0.9-1.8-0.9-3c0-1.9,0.6-3.1,1.8-3.8
		c0.6-0.3,1.3-0.5,1.9-0.5c1.3,0,2.2,0.5,2.8,1.4v0.1c0,0.2-0.1,0.3-0.3,0.5s-0.4,0.3-0.6,0.3c-0.1,0-0.2,0-0.3-0.1
		c-0.3-0.6-0.8-0.9-1.6-0.9c-1.5,0-2.3,1-2.3,3.1s0.8,3.1,2.3,3.1c1,0,1.6-0.5,1.9-1.4c0.1-0.2,0.3-0.3,0.5-0.3s0.4,0.1,0.5,0.2
		s0.3,0.3,0.3,0.5C44.7,21.8,44.7,21.9,44.7,22L44.7,22z"/>
	<path class="st0" d="M56.7,23.4c0,0.4-0.2,0.5-0.7,0.5c-0.2,0-0.3,0-0.5-0.1s-0.3-0.3-0.2-0.4v-4.8c0-1.3-0.5-2-1.6-2
		c-1.2,0-1.8,0.7-1.8,2.2v4.6c0,0.4-0.2,0.5-0.6,0.5c-0.2,0-0.3,0-0.5-0.1s-0.3-0.3-0.3-0.4v-5c0-0.5-0.2-1-0.5-1.3
		s-0.8-0.5-1.3-0.5c-0.8,0-1.3,0.3-1.5,0.9c-0.1,0.3-0.2,1-0.2,2v3.9c0,0.3-0.3,0.5-0.8,0.5c-0.4,0-0.6-0.2-0.6-0.5v-4.2
		c0-2.5,1-3.8,3.2-3.8c0.5,0,1,0.2,1.5,0.5s0.7,0.7,0.9,1.2c0.1-0.5,0.5-0.9,1-1.2s1-0.4,1.5-0.4c0.9,0,1.6,0.3,2.1,0.7
		c0.6,0.5,0.8,1.2,0.8,2L56.7,23.4L56.7,23.4z"/>
	<path class="st0" d="M65,23.5c0,0.3-0.3,0.4-0.7,0.4c-0.5,0-0.7-0.1-0.7-0.4v-3.8c0-0.9-0.1-1.5-0.3-1.8c-0.4-0.7-0.9-1-1.6-1
		s-1.3,0.3-1.6,1c-0.2,0.4-0.3,1-0.3,1.8v3.8c0,0.3-0.3,0.4-0.7,0.4c-0.5,0-0.7-0.1-0.7-0.4v-3.6c0-1.2,0.3-2.2,0.8-2.9
		c0.6-0.9,1.5-1.3,2.6-1.3c0.6,0,1.2,0.2,1.7,0.5c1,0.7,1.6,1.9,1.6,3.7L65,23.5L65,23.5z"/>
	<path class="st0" d="M73.7,19.5v0.1v0.1L67.8,20c0,0.8,0.3,1.4,0.7,1.9s1,0.8,1.8,0.8c1,0,1.7-0.5,2-1.4c0.1-0.2,0.4-0.3,0.7-0.3
		c0.5,0,0.7,0.1,0.7,0.4v0.1c-0.2,0.8-0.6,1.4-1.3,1.8c-0.6,0.4-1.3,0.6-2.2,0.6c-1.3,0-2.2-0.4-2.9-1.2c-0.6-0.8-1-1.7-1-3
		s0.3-2.3,0.9-3c0.7-0.8,1.6-1.3,2.8-1.3c1.1,0,2,0.4,2.7,1.1c0.3,0.3,0.5,0.8,0.7,1.2C73.6,18,73.7,18.6,73.7,19.5z M72.3,18.6
		c0-0.5-0.2-1-0.5-1.3c-0.4-0.5-1-0.8-1.7-0.8s-1.2,0.2-1.6,0.7c-0.4,0.4-0.6,1-0.7,1.7L72.3,18.6L72.3,18.6z"/>
	<path class="st0" d="M78.2,17h-1.3v6.4c0,0.3-0.2,0.5-0.7,0.5s-0.7-0.2-0.7-0.5V17H75c-0.2,0-0.3-0.2-0.3-0.5
		c0-0.4,0.1-0.6,0.3-0.6h0.5v-2.3c0-0.3,0.2-0.5,0.7-0.5s0.7,0.1,0.7,0.4v2.3h1.3c0.3,0,0.4,0.2,0.4,0.6S78.4,17,78.2,17z"/>
	<path class="st0" d="M81.4,23c0,0.3-0.1,0.4-0.3,0.6s-0.4,0.3-0.6,0.3c-0.3,0-0.5-0.1-0.6-0.3c-0.2-0.2-0.3-0.4-0.3-0.6
		c0-0.3,0.1-0.4,0.3-0.6s0.4-0.3,0.6-0.3c0.3,0,0.4,0.1,0.6,0.3C81.3,22.5,81.4,22.7,81.4,23z"/>
	<path class="st0" d="M89,22c-0.6,1.3-1.6,1.9-3,1.9c-1.2,0-2.1-0.4-2.8-1.2c-0.6-0.8-0.9-1.8-0.9-3c0-1.9,0.6-3.1,1.8-3.8
		c0.6-0.3,1.3-0.5,1.9-0.5c1.3,0,2.2,0.5,2.8,1.4v0.1c0,0.2-0.1,0.3-0.3,0.5s-0.4,0.3-0.6,0.3c-0.1,0-0.2,0-0.3-0.1
		c-0.3-0.6-0.8-0.9-1.6-0.9c-1.5,0-2.3,1-2.3,3.1s0.8,3.1,2.3,3.1c1,0,1.6-0.5,1.9-1.4c0.1-0.2,0.3-0.3,0.5-0.3s0.4,0.1,0.5,0.2
		c0.2,0.1,0.3,0.3,0.3,0.5C89.1,21.8,89.1,21.9,89,22L89,22z"/>
	<path class="st0" d="M97.4,19.5c0,1.9-0.6,3.2-1.8,3.8c-0.6,0.3-1.3,0.5-2,0.5c-1.3,0-2.2-0.4-2.9-1.2c-0.6-0.8-0.9-1.8-0.9-3
		c0-1.5,0.4-2.6,1.3-3.3c0.7-0.6,1.5-0.9,2.5-0.9c1.2,0,2.2,0.4,2.8,1.2C97,17.3,97.4,18.3,97.4,19.5z M96,19.6
		c0-0.8-0.2-1.5-0.5-2.1c-0.4-0.6-1-1-1.8-1c-0.8,0-1.5,0.3-1.9,1c-0.3,0.5-0.5,1.3-0.5,2.1s0.2,1.6,0.5,2.1c0.4,0.7,1,1,1.9,1
		c0.8,0,1.5-0.3,1.9-1C95.8,21.2,96,20.5,96,19.6z"/>
	<path class="st0" d="M100.8,23c0,0.3-0.1,0.4-0.3,0.6c-0.2,0.2-0.4,0.3-0.6,0.3c-0.3,0-0.4-0.1-0.6-0.3S99,23.2,99,23
		c0-0.3,0.1-0.4,0.3-0.6c0.2-0.2,0.4-0.3,0.6-0.3c0.3,0,0.4,0.1,0.6,0.3C100.7,22.5,100.8,22.7,100.8,23z"/>
	<path class="st0" d="M108.7,19.7c0,1.8-0.5,3-1.6,3.7c-0.5,0.3-1.1,0.5-1.7,0.5c-1.2,0-2-0.5-2.6-1.3c-0.5-0.8-0.8-1.8-0.8-3V16
		c0-0.3,0.2-0.4,0.7-0.4s0.7,0.1,0.7,0.4v3.8c0,0.8,0.1,1.4,0.3,1.8c0.4,0.7,0.9,1,1.6,1s1.3-0.3,1.6-1c0.2-0.4,0.3-1,0.3-1.8V16
		c0-0.3,0.2-0.4,0.7-0.4s0.7,0.1,0.7,0.4L108.7,19.7L108.7,19.7z"/>
	<path class="st0" d="M116.8,23.2v0.1c0,0.2-0.1,0.3-0.3,0.4c-0.1,0.1-0.3,0.1-0.5,0.1c-0.3,0-0.5-0.1-0.8-0.4l-3-3.4l-0.5,0.4v3
		c0,0.3-0.3,0.4-0.8,0.4c-0.4,0-0.6-0.1-0.6-0.4V12.8c0-0.3,0.2-0.4,0.7-0.4s0.7,0.1,0.7,0.4v6l3.2-3.3c0.3-0.3,0.5-0.4,0.9-0.4
		c0.2,0,0.3,0,0.5,0.1s0.3,0.2,0.3,0.4c0,0,0,0.1-0.1,0.2l-3.3,3.3L116.8,23.2L116.8,23.2z"/>
	<path class="st0" d="M13.3,23.8c-5.8,0.6-10.9-3.7-11.5-9.6S5.4,3,11.1,2.4C16.9,1.8,22,6.1,22.6,12c0.3,2.9-0.5,5.6-2.2,7.7
		c1.7-2.1,2.8-4.8,2.8-7.7c0-6.6-5.2-12-11.6-12S0,5.4,0,12s5.2,12,11.6,12c0.8,0,1.7-0.1,2.5-0.3C13.8,23.7,13.5,23.8,13.3,23.8"/>
	<path class="st0" d="M5.3,16.1C4.8,11.6,8.1,7.5,12.5,7s8.3,2.8,8.8,7.4c0.2,2.3-0.5,4.5-1.9,6.2c1.8-1.9,2.8-4.6,2.5-7.5
		c-0.5-5.2-5-9-10.1-8.5C6.8,5.1,3.1,9.8,3.6,15c0.5,5,4.6,8.6,9.4,8.5C9,23.3,5.7,20.3,5.3,16.1"/>
	<path class="st0" d="M18,21.7c1.7-1.4,2.6-3.7,2.4-6C20,11.9,16.7,9.1,13,9.5s-6.4,3.8-6,7.6s3.7,6.6,7.4,6.3
		c0.3,0,0.6-0.1,0.9-0.2c-0.2,0-0.3,0-0.5,0.1c-3,0.3-5.8-1.9-6.1-5s1.9-5.8,5-6.2c3-0.3,5.8,1.9,6.1,5C19.9,18.8,19.2,20.5,18,21.7
		"/>
	<path class="st0" d="M19,18c-0.3-2.5-2.4-4.3-4.8-4s-4.2,2.5-3.9,4.9s2.4,4.3,4.8,4C17.5,22.6,19.2,20.4,19,18 M15.3,22.8
		c-1.9,0.2-3.5-1.2-3.7-3.1s1.2-3.6,3-3.8s3.5,1.2,3.7,3.1S17.1,22.6,15.3,22.8"/>
</g>
</svg>
